<svg xmlns="http://www.w3.org/2000/svg" width="381" height="381"><path fill-rule="evenodd" fill="#353535" d="M190.5 380.5c-104.768 0-190-85.234-190-190S85.732.5 190.5.5c104.767 0 190 85.233 190 190 0 104.768-85.233 190-190 190zm134.595-256.159l-17.212 9.937a9.997 9.997 0 01-13.659-3.66c-2.762-4.783-1.124-10.899 3.659-13.66l17.188-9.923a151.187 151.187 0 00-45.449-43.909l-8.104 14.135a5.312 5.312 0 01-4.6 2.661 5.3 5.3 0 01-4.583-7.927l8.111-14.149a148.882 148.882 0 00-59.947-17.001v19.889c0 5.523-4.477 10-10 10-5.522 0-10-4.477-10-10V40.845a148.905 148.905 0 00-60.76 17.43l8.198 14.102a5.256 5.256 0 01.541 4.013 5.255 5.255 0 01-2.458 3.223 5.344 5.344 0 01-5.299.013 5.22 5.22 0 01-1.935-1.929l-8.188-14.084a151.192 151.192 0 00-44.671 43.422l17.188 9.923c4.782 2.761 6.421 8.877 3.659 13.66a9.996 9.996 0 01-13.659 3.66l-17.212-9.937c-9.183 18.607-14.62 39.378-15.319 61.327l16.348-.05a5.303 5.303 0 015.293 5.277 5.257 5.257 0 01-1.538 3.748 5.255 5.255 0 01-3.737 1.56l-16.33.05c.818 21.61 6.228 42.062 15.284 60.41l17.212-9.936c4.782-2.762 10.898-1.124 13.659 3.659 2.762 4.783 1.123 10.899-3.659 13.66l-17.188 9.923a151.212 151.212 0 0045.447 43.908l8.102-14.133a5.321 5.321 0 014.603-2.663c.927 0 1.81.237 2.624.704a5.257 5.257 0 012.475 3.205 5.258 5.258 0 01-.517 4.018l-8.111 14.149a148.887 148.887 0 0059.949 17.002V320.27c0-5.523 4.478-10 10-10s10 4.477 10 10v19.89a148.901 148.901 0 0060.76-17.43l-8.199-14.1a5.27 5.27 0 01-.542-4.017 5.253 5.253 0 012.458-3.22 5.2 5.2 0 012.648-.719 5.322 5.322 0 014.587 2.635l8.188 14.084a151.25 151.25 0 0044.672-43.424l-17.188-9.923c-4.783-2.761-6.421-8.877-3.659-13.659 2.761-4.784 8.875-6.422 13.659-3.66l17.212 9.936c9.183-18.606 14.62-39.378 15.319-61.327l-16.333.051h-.017a5.283 5.283 0 01-2.623-.696 5.316 5.316 0 01-2.668-4.582 5.257 5.257 0 011.539-3.747 5.252 5.252 0 013.736-1.561l16.33-.05c-.819-21.61-6.228-42.062-15.284-60.41zm-48.504 33.9l-65.443 36.311c-1.89 9.684-10.412 16.997-20.65 16.997-10.238 0-18.759-7.313-20.65-16.997l-65.443-36.311c-6.067-3.366-8.255-11.012-4.891-17.077 3.367-6.065 11.014-8.255 17.078-4.889l64.141 35.588a20.931 20.931 0 019.766-2.412c3.528 0 6.847.879 9.767 2.412l64.14-35.588c6.067-3.366 13.712-1.177 17.074 4.889 3.365 6.066 1.177 13.712-4.889 17.077z"/></svg>