<svg xmlns="http://www.w3.org/2000/svg" width="35" height="33"><defs><filter id="a"><feFlood flood-color="#353535" flood-opacity="1" result="floodOut"/><feComposite operator="atop" in="floodOut" in2="SourceGraphic" result="compOut"/><feBlend in="compOut" in2="SourceGraphic"/></filter></defs><g filter="url(#a)"><path fill-rule="evenodd" fill="#353535" d="M26.844 32.019H5.128V15.024h29.86v16.995h-8.144zm5.973-11.242l-.887-.853c-.113.021-.216.064-.336.064-.972 0-1.761-.759-1.761-1.696 0-.115.044-.216.068-.324l-.886-.853H11.1l-.886.853c.023.11.068.209.068.324 0 .937-.788 1.696-1.761 1.696-.119 0-.224-.041-.336-.064l-.885.852v5.49l.886.852c.112-.02.216-.064.335-.064.973 0 1.762.76 1.762 1.695 0 .116-.045.216-.068.325l.885.853h17.915l.887-.854c-.023-.108-.068-.208-.068-.324 0-.935.788-1.696 1.76-1.696.12 0 .224.042.337.065l.886-.852v-5.489zm-3.937 4.441c-.973 0-1.761-.759-1.761-1.697 0-.937.788-1.696 1.761-1.696.973 0 1.762.759 1.762 1.696 0 .938-.789 1.697-1.762 1.697zm-8.822 2.766c-2.943 0-5.328-1.998-5.328-4.463s2.385-4.464 5.328-4.464c2.942 0 5.328 1.999 5.328 4.464 0 2.465-2.386 4.463-5.328 4.463zm-8.822-2.768c-.972 0-1.761-.757-1.761-1.695 0-.937.789-1.695 1.761-1.695.972 0 1.76.758 1.76 1.695 0 .938-.788 1.695-1.76 1.695zM25.083 8.593c.971 0 1.76.76 1.76 1.696 0 .936-.789 1.695-1.76 1.695-.972 0-1.762-.759-1.762-1.695s.79-1.696 1.762-1.696zm-3.066 3.313c.209.367.328.758.407 1.156h-9.818c.478-1.04 1.329-1.984 2.511-2.606 2.582-1.361 5.67-.712 6.9 1.45zm6.407 1.158a1.7 1.7 0 01.802-.931c.105-.055.219-.068.326-.099l.351-1.158-2.738-4.814-1.204-.34c-.084.072-.156.158-.258.212-.858.45-1.925.15-2.393-.672-.058-.102-.071-.211-.106-.316l-1.2-.337-15.713 8.287-.05.166H5.128c-1.124 0-2.036.88-2.036 1.962v4.22L.01 13.824l7.143-3.767 11.905-6.279h-.002L26.2.011l3.915 6.879h-.001l3.51 6.174h-5.2z"/></g></svg>