<svg xmlns="http://www.w3.org/2000/svg" width="40" height="48"><path fill-rule="evenodd" fill="#353535" d="M38.002 48l-29.61-3.778.029-.022c-4.743-.617-8.422-4.677-8.422-9.588 0-.099.018-.194.029-.29V1a1 1 0 011-1H39c.552 0 1 .447 1.001 1v45a2 2 0 01-1.999 2zM35.003 5H5.025v29.475c.009.088 0 .217 0 .308 0 2.579 2.067 4.507 4.645 4.507 2.579 0 4.664-2.099 4.664-4.678 0-.054-.002-.104 0-.155v-3.422c0-.553.378-.76.843-.464l19.826 11.634V5zM9.691 19.223h20.607v3H9.691v-3zm0-7.19h20.607v3H9.691v-3z"/></svg>