<svg version="1.0" xmlns="http://www.w3.org/2000/svg" width="1425.333" height="1706.667" viewBox="0 0 1069 1280"><path d="M278.4 279.1L22.5 535H337v33.9l4.3.6c2.3.3 91.7.4 198.7.3l194.5-.3V535h155.3c85.3 0 155.2-.3 155.2-.7 0-.7-503.2-504.8-508.1-509l-2.5-2.2-256 256zM337 597.5V623l198.8-.2 198.7-.3.3-19c.2-10.5 0-21.8-.3-25.3l-.7-6.2H337v25.5zm0 54.5v23l198.8-.2 198.7-.3.3-17.5c.2-9.6 0-19.9-.3-22.8l-.6-5.2H337v23zm0 54.5V728h398v-16.9c0-9.2-.3-18.9-.6-21.5l-.7-4.6H337v21.5zm0 54.4v20l5.3.6c2.8.3 92.3.5 198.7.3l193.5-.3.3-14c.2-7.7 0-16.8-.3-20.3l-.7-6.2H337v19.9zm.2 54.8l.3 17.8h397l.3-12.5c.2-6.9 0-14.9-.3-17.8l-.6-5.2H337l.2 17.7zm-.2 54.8V887l198.8-.2 198.7-.3.3-10c.2-5.5 0-12.8-.3-16.3l-.7-6.2H337v16.5zm0 54.5v15h398v-10.4c0-5.7-.3-12.4-.6-15l-.7-4.6H337v15zm.7 41.7c-.4.3-.7 6.2-.7 13V992h398v-8.4c0-4.6-.3-10.4-.6-13l-.7-4.6H536c-108.7 0-198 .3-198.3.7zm-.7 67.2v11l4.3.6c2.3.3 91.7.4 198.7.3l194.5-.3.3-6c.2-3.3.1-8.4-.3-11.3l-.6-5.2H337v10.9zm0 55.1v10l198.8-.2 198.7-.3.3-3.5c.2-1.9.1-6.3-.3-9.8l-.7-6.2H337v10zm0 54v8h198.5c176.7 0 198.6-.2 199.1-1.5.4-.9.3-4.5-.1-8l-.7-6.5H337v8zm0 55v6h398v-2.3c0-1.2-.3-3.9-.6-6l-.7-3.7H337v6zm0 54.4v4.3l4.6.7c6.9.9 392.2.7 392.8-.2.2-.4.2-2.7-.1-5l-.6-4.2H337v4.4z" fill="#333"/></svg>