<svg xmlns="http://www.w3.org/2000/svg" width="597" height="612" viewBox="0 0 597 612">
  <defs>
    <style>
      .cls-1 {
        fill-rule: evenodd;
      }
    </style>
  </defs>
  <path fill="#353535" id="Forma_1" data-name="Forma 1" class="cls-1" d="M251.616,322.679A30.653,30.653,0,1,1,220.963,292,30.666,30.666,0,0,1,251.616,322.679ZM376.038,292a30.681,30.681,0,1,0,30.652,30.68A30.668,30.668,0,0,0,376.038,292ZM506.973,416.891v-3.5a269.832,269.832,0,0,1-12.27,29.324,182.493,182.493,0,0,0,5.018,23.059c12.6,19.5,48.149,44.348,72.522,50.748a83.135,83.135,0,0,1-44.37,5.529,132.413,132.413,0,0,0,62.027,43.49C524.345,624.683,416.333,626,340.831,580.071a150.962,150.962,0,0,1-42.331,6.563,150.963,150.963,0,0,1-42.332-6.563C180.666,626,72.655,624.683,7.1,565.545a132.3,132.3,0,0,0,62.822-44.569A83.832,83.832,0,0,1,34.34,514.65C52.2,509.96,76.047,495.355,92.5,480.212a182.932,182.932,0,0,0,9.795-37.494,269.827,269.827,0,0,1-12.27-29.324v3.5H52.958A52.982,52.982,0,0,1,0,363.884V305.577a53,53,0,0,1,27.763-46.631c0.555-82.782,24.661-147.435,71.75-192.132C146.221,22.482,213.171,0,298.5,0S450.781,22.482,497.488,66.815c47.089,44.7,71.194,109.349,71.75,192.132A53,53,0,0,1,597,305.578v58.307a52.982,52.982,0,0,1-52.958,53.006H506.973Zm-22.057-94.016c0-13.64-.7-26.454-1.728-38.872-23.893-21.879-67.6-38.38-122.721-44.2a66.533,66.533,0,0,1,20.269,33.249c-32.047-23.448-99.216-30.709-121.526-55.833l0.022,0c-35.513-23.529-44.831-57.229-45.131-43.281-1.437,66.895-48.808,119.045-101.411,126.4-0.333,7.356-.606,14.784-0.606,22.534a240.17,240.17,0,0,0,12.457,77.268c29.546,35.674,78.343,45.747,121.532,48.419,8.018-12.769,26.007-21.682,46.957-21.682,28.4,0,51.428,16.359,51.428,36.54s-23.025,36.539-51.428,36.539c-21.848,0-40.466-9.7-47.919-23.348-30.185-1.757-63.367-6.906-92.941-20.884,41.592,61.358,106.065,93.8,146.33,93.8C361.77,549.53,484.916,469.529,484.916,322.875Zm32.064-70.3h20.376C533.985,108.116,451.605,31.805,298.5,31.805S63.017,108.116,59.646,252.572H80.022c7.45-48.688,23.2-88.732,47.1-119.52,38.1-49.062,95.755-73.939,171.377-73.939S431.782,83.99,469.879,133.051C493.785,163.84,509.531,203.884,516.98,252.572Z"/>
</svg>
