<svg 
 xmlns="http://www.w3.org/2000/svg"
 xmlns:xlink="http://www.w3.org/1999/xlink"
 width="381px" height="381px">
<path fill-rule="evenodd"  fill="#353535"
 d="M190.500,380.500 C85.732,380.500 0.500,295.266 0.500,190.500 C0.500,85.734 85.732,0.500 190.500,0.500 C295.267,0.500 380.500,85.733 380.500,190.500 C380.500,295.268 295.267,380.500 190.500,380.500 ZM325.095,124.341 L307.883,134.278 C306.310,135.187 304.590,135.619 302.894,135.619 C299.438,135.619 296.077,133.826 294.224,130.618 C291.462,125.835 293.100,119.719 297.883,116.958 L315.071,107.035 C303.207,89.387 287.693,74.391 269.622,63.126 L261.518,77.261 C260.578,78.902 258.815,79.922 256.918,79.922 C255.990,79.922 255.107,79.685 254.294,79.219 C251.763,77.768 250.884,74.527 252.335,71.995 L260.446,57.846 C242.331,48.255 222.029,42.269 200.499,40.845 L200.499,60.734 C200.499,66.257 196.022,70.734 190.499,70.734 C184.977,70.734 180.499,66.257 180.499,60.734 L180.499,40.845 C158.646,42.291 138.058,48.432 119.739,58.275 L127.937,72.377 C128.647,73.599 128.840,75.024 128.478,76.390 C128.117,77.757 127.244,78.902 126.020,79.613 C124.390,80.562 122.339,80.552 120.721,79.626 C119.910,79.160 119.260,78.512 118.786,77.697 L110.598,63.613 C92.860,74.822 77.620,89.640 65.927,107.035 L83.115,116.958 C87.897,119.719 89.536,125.835 86.774,130.618 C84.922,133.826 81.560,135.619 78.104,135.619 C76.408,135.619 74.689,135.187 73.115,134.278 L55.903,124.341 C46.720,142.948 41.283,163.719 40.584,185.668 L56.932,185.618 C59.841,185.618 62.216,187.985 62.225,190.895 C62.230,192.309 61.683,193.641 60.687,194.643 C59.691,195.645 58.364,196.199 56.950,196.203 L40.620,196.253 C41.438,217.863 46.848,238.315 55.904,256.663 L73.116,246.727 C77.898,243.965 84.014,245.603 86.775,250.386 C89.537,255.169 87.898,261.285 83.116,264.046 L65.928,273.969 C77.792,291.617 93.306,306.611 111.375,317.877 L119.477,303.744 C120.420,302.102 122.184,301.081 124.080,301.081 C125.007,301.081 125.890,301.318 126.704,301.785 C127.930,302.488 128.809,303.626 129.179,304.990 C129.549,306.356 129.365,307.782 128.662,309.008 L120.551,323.157 C138.666,332.748 158.969,338.735 180.500,340.159 L180.500,320.270 C180.500,314.747 184.978,310.270 190.500,310.270 C196.022,310.270 200.500,314.747 200.500,320.270 L200.500,340.160 C222.354,338.714 242.941,332.573 261.260,322.730 L253.061,308.630 C252.350,307.406 252.159,305.981 252.519,304.613 C252.881,303.247 253.753,302.103 254.977,301.393 C255.797,300.916 256.687,300.674 257.625,300.674 C259.509,300.674 261.267,301.684 262.212,303.309 L270.400,317.393 C288.139,306.182 303.377,291.363 315.072,273.969 L297.884,264.046 C293.101,261.285 291.463,255.169 294.225,250.387 C296.986,245.603 303.100,243.965 307.884,246.727 L325.096,256.663 C334.279,238.057 339.716,217.285 340.415,195.336 L324.082,195.387 L324.065,195.387 C323.143,195.387 322.236,195.146 321.442,194.691 C319.802,193.751 318.780,191.996 318.774,190.109 C318.770,188.695 319.316,187.365 320.313,186.362 C321.308,185.360 322.635,184.805 324.049,184.801 L340.379,184.751 C339.560,163.141 334.151,142.689 325.095,124.341 ZM276.591,158.241 L211.148,194.552 C209.258,204.236 200.736,211.549 190.498,211.549 C180.260,211.549 171.739,204.236 169.848,194.552 L104.405,158.241 C98.338,154.875 96.150,147.229 99.514,141.164 C102.881,135.099 110.528,132.909 116.592,136.275 L180.733,171.863 C183.653,170.329 186.971,169.451 190.499,169.451 C194.027,169.451 197.346,170.330 200.266,171.863 L264.406,136.275 C270.473,132.909 278.118,135.098 281.480,141.164 C284.845,147.230 282.657,154.876 276.591,158.241 Z"/>
</svg>