<svg 
 xmlns="http://www.w3.org/2000/svg"
 xmlns:xlink="http://www.w3.org/1999/xlink"
 width="35px" height="33px">
<defs>
<filter id="Filter_0">
    <feFlood flood-color="rgb(53, 53, 53)" flood-opacity="1" result="floodOut" />
    <feComposite operator="atop" in="floodOut" in2="SourceGraphic" result="compOut" />
    <feBlend mode="normal" in="compOut" in2="SourceGraphic" />
</filter>

</defs>
<g filter="url(#Filter_0)">
<path fill-rule="evenodd"  fill="#353535"
 d="M26.844,32.019 L13.271,32.019 L5.128,32.019 L5.128,24.175 L5.128,22.867 L5.128,15.024 L13.271,15.024 L26.844,15.024 L34.988,15.024 L34.988,22.867 L34.988,24.175 L34.988,32.019 L26.844,32.019 ZM32.817,20.777 L31.930,19.924 C31.817,19.945 31.714,19.988 31.594,19.988 C30.622,19.988 29.833,19.229 29.833,18.292 C29.833,18.177 29.877,18.076 29.901,17.968 L29.015,17.115 L11.100,17.115 L10.214,17.968 C10.237,18.078 10.282,18.177 10.282,18.292 C10.282,19.229 9.494,19.988 8.521,19.988 C8.402,19.988 8.297,19.947 8.185,19.924 L7.300,20.776 L7.300,26.266 L8.186,27.118 C8.298,27.098 8.402,27.054 8.521,27.054 C9.494,27.054 10.283,27.814 10.283,28.749 C10.283,28.865 10.238,28.965 10.215,29.074 L11.100,29.927 L29.015,29.927 L29.902,29.073 C29.879,28.965 29.834,28.865 29.834,28.749 C29.834,27.814 30.622,27.053 31.594,27.053 C31.714,27.053 31.818,27.095 31.931,27.118 L32.817,26.266 L32.817,20.777 ZM28.880,25.218 C27.907,25.218 27.119,24.459 27.119,23.521 C27.119,22.584 27.907,21.825 28.880,21.825 C29.853,21.825 30.642,22.584 30.642,23.521 C30.642,24.459 29.853,25.218 28.880,25.218 ZM20.058,27.984 C17.115,27.984 14.730,25.986 14.730,23.521 C14.730,21.056 17.115,19.057 20.058,19.057 C23.000,19.057 25.386,21.056 25.386,23.521 C25.386,25.986 23.000,27.984 20.058,27.984 ZM11.236,25.216 C10.264,25.216 9.475,24.459 9.475,23.521 C9.475,22.584 10.264,21.826 11.236,21.826 C12.208,21.826 12.996,22.584 12.996,23.521 C12.996,24.459 12.208,25.216 11.236,25.216 ZM25.083,8.593 C26.054,8.593 26.843,9.353 26.843,10.289 C26.843,11.225 26.054,11.984 25.083,11.984 C24.111,11.984 23.321,11.225 23.321,10.289 C23.321,9.353 24.111,8.593 25.083,8.593 ZM22.017,11.906 C22.226,12.273 22.345,12.664 22.424,13.062 L12.606,13.062 C13.084,12.022 13.935,11.078 15.117,10.456 C17.699,9.095 20.787,9.744 22.017,11.906 ZM28.424,13.064 C28.565,12.684 28.828,12.342 29.226,12.133 C29.331,12.078 29.445,12.065 29.552,12.034 L29.903,10.876 L27.165,6.062 L25.961,5.722 C25.877,5.794 25.805,5.880 25.703,5.934 C24.845,6.384 23.778,6.084 23.310,5.262 C23.252,5.160 23.239,5.051 23.204,4.946 L22.004,4.609 L6.291,12.896 L6.241,13.062 L5.128,13.062 C4.004,13.062 3.092,13.942 3.092,15.024 L3.092,19.244 L0.010,13.824 L7.153,10.057 L19.058,3.778 L19.056,3.778 L26.200,0.011 L30.115,6.890 L30.114,6.890 L33.624,13.064 L28.424,13.064 Z"/>
</g>
</svg>