<svg 
 xmlns="http://www.w3.org/2000/svg"
 xmlns:xlink="http://www.w3.org/1999/xlink"
 width="40px" height="48px">
<path fill-rule="evenodd"  fill="#353535"
 d="M38.002,48.000 L8.392,44.222 L8.421,44.200 C3.678,43.583 -0.001,39.523 -0.001,34.612 C-0.001,34.513 0.017,34.418 0.028,34.322 L0.028,1.000 C0.028,0.447 0.475,-0.000 1.028,-0.000 L39.000,-0.000 C39.552,-0.000 40.000,0.447 40.001,1.000 L40.001,46.000 C40.001,47.105 39.105,48.000 38.002,48.000 ZM35.003,5.000 L5.025,5.000 L5.025,34.347 L5.025,34.475 C5.034,34.563 5.025,34.692 5.025,34.783 C5.025,37.362 7.092,39.290 9.670,39.290 C12.249,39.290 14.334,37.191 14.334,34.612 C14.334,34.558 14.332,34.508 14.334,34.457 L14.334,34.443 L14.334,31.035 C14.334,30.482 14.712,30.275 15.177,30.571 L35.003,42.205 L35.003,5.000 ZM9.691,19.223 L30.298,19.223 L30.298,22.223 L9.691,22.223 L9.691,19.223 ZM9.691,12.033 L30.298,12.033 L30.298,15.033 L9.691,15.033 L9.691,12.033 Z"/>
</svg>