<svg 
 xmlns="http://www.w3.org/2000/svg"
 xmlns:xlink="http://www.w3.org/1999/xlink"
 width="512px" height="512px">
<path fill-rule="evenodd"  fill="#353535"
 d="M64.000,80.000 L64.000,16.000 C64.000,7.156 71.156,0.000 80.000,0.000 C88.844,0.000 96.000,7.156 96.000,16.000 L96.000,80.000 C96.000,88.844 88.844,96.000 80.000,96.000 C71.156,96.000 64.000,88.844 64.000,80.000 ZM336.000,96.000 C344.844,96.000 352.000,88.844 352.000,80.000 L352.000,16.000 C352.000,7.156 344.844,0.000 336.000,0.000 C327.156,0.000 320.000,7.156 320.000,16.000 L320.000,80.000 C320.000,88.844 327.156,96.000 336.000,96.000 ZM512.000,384.000 C512.000,454.687 454.687,512.000 384.000,512.000 C313.312,512.000 256.000,454.687 256.000,384.000 C256.000,313.312 313.312,256.000 384.000,256.000 C454.687,256.000 512.000,313.312 512.000,384.000 ZM480.000,384.000 C480.000,331.062 436.937,288.000 384.000,288.000 C331.062,288.000 288.000,331.062 288.000,384.000 C288.000,436.937 331.062,480.000 384.000,480.000 C436.937,480.000 480.000,436.937 480.000,384.000 ZM128.000,192.000 L64.000,192.000 L64.000,256.000 L128.000,256.000 L128.000,192.000 ZM64.000,352.000 L128.000,352.000 L128.000,288.000 L64.000,288.000 L64.000,352.000 ZM160.000,256.000 L224.000,256.000 L224.000,192.000 L160.000,192.000 L160.000,256.000 ZM160.000,352.000 L224.000,352.000 L224.000,288.000 L160.000,288.000 L160.000,352.000 ZM32.000,380.812 L32.000,160.000 L384.000,160.000 L384.000,224.000 L416.000,224.000 L416.000,99.188 C416.000,79.750 400.500,64.000 381.344,64.000 L368.000,64.000 L368.000,80.000 C368.000,97.625 353.656,112.000 336.000,112.000 C318.344,112.000 304.000,97.625 304.000,80.000 L304.000,64.000 L112.000,64.000 L112.000,80.000 C112.000,97.625 97.656,112.000 80.000,112.000 C62.344,112.000 48.000,97.625 48.000,80.000 L48.000,64.000 L34.672,64.000 C15.516,64.000 0.000,79.750 0.000,99.188 L0.000,380.812 C0.000,400.187 15.516,416.000 34.672,416.000 L224.000,416.000 L224.000,384.000 L34.672,384.000 C33.219,384.000 32.000,382.500 32.000,380.812 ZM320.000,256.000 L320.000,192.000 L256.000,192.000 L256.000,256.000 L320.000,256.000 ZM432.000,384.000 L384.000,384.000 L384.000,336.000 C384.000,327.156 376.844,320.000 368.000,320.000 C359.156,320.000 352.000,327.156 352.000,336.000 L352.000,400.000 C352.000,408.844 359.156,416.000 368.000,416.000 L432.000,416.000 C440.844,416.000 448.000,408.844 448.000,400.000 C448.000,391.156 440.844,384.000 432.000,384.000 Z"/>
</svg>