<svg 
 xmlns="http://www.w3.org/2000/svg"
 xmlns:xlink="http://www.w3.org/1999/xlink"
 width="510px" height="510px">
<path fill-rule="evenodd"  fill="#ffd201"
 d="M255.000,510.000 C114.750,510.000 -0.000,395.250 -0.000,255.000 C-0.000,114.750 114.750,-0.000 255.000,-0.000 C395.250,-0.000 510.000,114.750 510.000,255.000 C510.000,395.250 395.250,510.000 255.000,510.000 ZM255.000,51.000 C142.800,51.000 51.000,142.800 51.000,255.000 C51.000,367.200 142.800,459.000 255.000,459.000 C367.200,459.000 459.000,367.200 459.000,255.000 C459.000,142.800 367.200,51.000 255.000,51.000 ZM229.500,280.500 L229.500,127.500 L267.750,127.500 L267.750,260.100 L382.500,328.950 L362.100,362.100 L229.500,280.500 Z"/>
</svg>