<svg 
 xmlns="http://www.w3.org/2000/svg"
 xmlns:xlink="http://www.w3.org/1999/xlink"
 width="459px" height="459px">
<path fill-rule="evenodd"  fill="#ffd201"
 d="M91.800,198.900 C127.500,270.300 188.700,328.950 260.100,367.200 L316.200,311.100 C323.850,303.450 334.050,300.900 341.700,306.000 C369.750,316.200 400.350,321.300 433.500,321.300 C448.800,321.300 459.000,331.500 459.000,346.800 L459.000,433.500 C459.000,448.800 448.800,459.000 433.500,459.000 C193.800,459.000 -0.000,265.200 -0.000,25.500 C-0.000,10.200 10.200,-0.000 25.500,-0.000 L114.750,-0.000 C130.050,-0.000 140.250,10.200 140.250,25.500 C140.250,56.100 145.350,86.700 155.550,117.300 C158.100,124.950 155.550,135.150 150.450,142.800 L91.800,198.900 Z"/>
</svg>