<svg xmlns="http://www.w3.org/2000/svg" width="418" height="512"><path fill="#333" d="M368.21 0H49.789A49.841 49.841 0 000 49.78v412.44A49.841 49.841 0 0049.789 512H368.21A49.841 49.841 0 00418 462.22V49.78A49.841 49.841 0 00368.21 0zM70.506 86.526a19.3 19.3 0 0119.3-19.3h238.381a19.3 19.3 0 0119.305 19.3v60.423a19.3 19.3 0 01-19.305 19.3H89.812a19.3 19.3 0 01-19.3-19.3V86.526zm62.48 356.341a7.788 7.788 0 01-7.79 7.787H51.8a7.789 7.789 0 01-7.789-7.787v-41.015a7.789 7.789 0 017.789-7.788h73.4a7.789 7.789 0 017.79 7.788v41.015zm0-87.282a7.788 7.788 0 01-7.79 7.787H51.8a7.789 7.789 0 01-7.789-7.787V314.57a7.789 7.789 0 017.789-7.788h73.4a7.789 7.789 0 017.79 7.788v41.015zm0-88.027a7.789 7.789 0 01-7.79 7.788H51.8a7.789 7.789 0 01-7.789-7.788v-41.015a7.788 7.788 0 017.789-7.787h73.4a7.789 7.789 0 017.79 7.787v41.015zM254.6 442.867a7.788 7.788 0 01-7.789 7.787h-73.39a7.788 7.788 0 01-7.788-7.787v-41.015a7.789 7.789 0 017.788-7.788h73.394a7.788 7.788 0 017.789 7.788v41.015zm0-87.282a7.788 7.788 0 01-7.789 7.787h-73.39a7.788 7.788 0 01-7.788-7.787V314.57a7.789 7.789 0 017.788-7.788h73.394a7.788 7.788 0 017.789 7.788v41.015zm0-88.027a7.788 7.788 0 01-7.789 7.788h-73.39a7.788 7.788 0 01-7.788-7.788v-41.015a7.788 7.788 0 017.788-7.787h73.394a7.788 7.788 0 017.789 7.787v41.015zm119.385 175.309a7.788 7.788 0 01-7.789 7.787H292.8a7.788 7.788 0 01-7.789-7.787V314.57a7.789 7.789 0 017.789-7.788h73.4a7.788 7.788 0 017.789 7.788v128.3zm0-175.309a7.789 7.789 0 01-7.789 7.788H292.8a7.788 7.788 0 01-7.789-7.788v-41.015a7.788 7.788 0 017.789-7.787h73.4a7.788 7.788 0 017.789 7.787v41.015z" fill-rule="evenodd"/></svg>