<svg xmlns="http://www.w3.org/2000/svg" width="432" height="351"><path fill="#333" data-name="Forma 1" d="M423.38 11.122a6 6 0 00-10.47-1.281c-7.584 10.643-17.536 14.19-29.065 18.3-9.3 3.314-18.909 6.739-29.3 14.2-14.693 10.558-21.414 24.95-18.063 38.59l-.358.46a197.248 197.248 0 00-19.856-24.506A185.494 185.494 0 00189.905.111 181.007 181.007 0 00183.6 0C130.736 0 80.132 23.656 44.77 64.9 9.592 105.928-6 159.339 1.994 211.436c.668 4.354 1.5 8.755 2.488 13.08 13 57.277 46.209 100.848 91.108 119.538A86.179 86.179 0 00128.767 351c27.194 0 50.948-14.558 65.171-39.942a86.436 86.436 0 0010.362-29.691c.866-5.928.274-11.851-.3-17.59-.591-5.909-1.15-11.491-.256-17.113 2.048-12.885 11.041-20.579 24.057-20.579a37.022 37.022 0 0111.264 1.815c-4.423 8.12-8.442 15.875-11.952 23.062-7.439 15.232-12.573 27.846-15.259 37.489-1.655 5.948-6.054 21.75 4.672 29.2a16.024 16.024 0 0012.221 2.364c4.05-.753 16.376-3.044 51.4-42.952 9.4-10.709 19.53-23.1 30.116-36.842 27.18-9.162 48.331-31.963 53.927-58.163a85.763 85.763 0 001.736-20.839c10.176-15.741 19.1-30.428 28.084-46.216.172-.3.342-.629.51-.961 13.037-3.574 24.265-13.728 30.855-27.928 9.625-20.723 8.915-47.357-1.995-74.992zm-146.935 98.132a25.629 25.629 0 113.3-19.326 25.477 25.477 0 01-3.3 19.326zm33.221 46.414c12.939-19.082 26.623-38.05 39.621-54.922a70.192 70.192 0 007.015 5.537 53.886 53.886 0 0013.17 6.763C358.5 131.829 346.7 150.437 332.413 171.5c-23.473 34.616-47.88 66.771-68.725 90.542-11.643 13.278-21.832 23.529-29.683 29.878 3.03-9.7 8.822-23.019 16.882-38.8 14.413-28.213 35.288-62.82 58.779-97.452zM82.483 155.5a25.621 25.621 0 1121.685-11.971A25.5 25.5 0 0182.483 155.5zm-26.828 56.411a25.628 25.628 0 11-3.3 19.325 25.474 25.474 0 013.3-19.325zM137.621 59.77a25.632 25.632 0 11-3.3 19.326 25.476 25.476 0 013.3-19.326z" fill-rule="evenodd"/></svg>